<?xml version="1.0" encoding="utf-8"?>
<svg version="1.1" xmlns:xlink="http://www.w3.org/1999/xlink" width="15px" height="15px" xmlns="http://www.w3.org/2000/svg">
  <g transform="matrix(1 0 0 1 -642 -352 )">
    <path d="M 649.5 352  C 653.7 352  657 355.3  657 359.5  C 657 363.7  653.7 367  649.5 367  C 645.3 367  642 363.7  642 359.5  C 642 355.3  645.3 352  649.5 352  Z " fill-rule="nonzero" fill="#ffffff" stroke="none" />
    <path d="M 649.5 352.5  C 653.42 352.5  656.5 355.58  656.5 359.5  C 656.5 363.42  653.42 366.5  649.5 366.5  C 645.58 366.5  642.5 363.42  642.5 359.5  C 642.5 355.58  645.58 352.5  649.5 352.5  Z " stroke-width="1" stroke="#797979" fill="none" />
  </g>
</svg>