<?xml version="1.0" encoding="utf-8"?>
<svg version="1.1" xmlns:xlink="http://www.w3.org/1999/xlink" width="23px" height="23px" xmlns="http://www.w3.org/2000/svg">
  <g transform="matrix(1 0 0 1 -121 -592 )">
    <path d="M 122 603.5  A 10.5 10.5 0 0 1 132.5 593 A 10.5 10.5 0 0 1 143 603.5 A 10.5 10.5 0 0 1 132.5 614 A 10.5 10.5 0 0 1 122 603.5 Z " fill-rule="nonzero" fill="#ffffff" stroke="none" fill-opacity="0" />
    <path d="M 121.5 603.5  A 11 11 0 0 1 132.5 592.5 A 11 11 0 0 1 143.5 603.5 A 11 11 0 0 1 132.5 614.5 A 11 11 0 0 1 121.5 603.5 Z " stroke-width="1" stroke-dasharray="3,1" stroke="#999999" fill="none" stroke-dashoffset="0.5" />
  </g>
</svg>