<svg class="icon" viewBox="0 0 1024 1024" version="1.1" xmlns="http://www.w3.org/2000/svg" p-id="4072" height="128" width="128"><path d="M568.96 248.52c40.97-32.89 81.98-12.44 81.98 40.46v503.64c0 52.87-40.94 73.39-80.79 41.19l-199.38-137.3H270.22c-14.43 0-28.26-5.73-38.46-15.93a54.382 54.382 0 0 1-15.93-38.46V439.46c0-14.43 5.73-28.26 15.93-38.46a54.382 54.382 0 0 1 38.46-15.93h99.75L569 248.56l-0.04-0.04zM375.59 385.11h-5.62l-4.64 3.19 10.26-3.19z m0 36.26H270.22a18.127 18.127 0 0 0-18.13 18.13v202.62a18.127 18.127 0 0 0 18.13 18.13h111.82l4.64 3.19 205.15 141.34c16.9 13.63 22.84 10.66 22.84-12.15V288.95c0-22.81-6.02-25.82-24.11-11.31l-209.4 143.7h-5.62l0.05 0.03z m344.14 239.24c-6.09 7.95-17.47 9.46-25.42 3.37-7.95-6.09-9.46-17.47-3.37-25.42 20.89-27.3 32.53-61.61 32.53-97.9 0-36.23-11.57-70.38-32.27-97.65-5.74-7.97-4.09-19.06 3.72-25.01 7.81-5.95 18.94-4.61 25.11 3.04a197.15 197.15 0 0 1 39.71 119.55c0 44.31-14.29 86.33-39.99 119.98v0.04z m34.84 111.9c-7.83 5.88-18.91 4.48-25.04-3.16-6.12-7.64-5.07-18.76 2.38-25.13 63.35-50.76 100.33-124 100.33-202.76 0-79.41-37.6-153.23-101.89-204a18.122 18.122 0 0 1-7.16-17c0.89-6.55 5.28-12.09 11.44-14.47a18.124 18.124 0 0 1 18.2 3.05C825.6 366.51 868.5 450.71 868.5 541.46c0 90.03-42.17 173.57-113.93 231.05z m0 0" p-id="4073"></path></svg>